<?xml version="1.0" ?><svg id="outline" viewBox="0 0 340 340" xmlns="http://www.w3.org/2000/svg"><title/><path d="M249.453,143.062a5.258,5.258,0,0,0,4.882,1.71l.1-.016a8.376,8.376,0,0,1,8.764,4.557c.829,1.682,1.843,3.626,3.01,5.735l.008.019c.021.039.044.076.065.114,6.03,11.271,15.6,22.986,19.936,27.647.007.008.017.013.024.021a118.942,118.942,0,0,0,13.184,12.218,28.652,28.652,0,0,0,17.74,6.123h1.871a15.078,15.078,0,0,0,14.989-12.268,14.779,14.779,0,0,0-10.421-16.688c-3.781-1.076-8.864-2.914-12.6-6.876-5.1-5.4-10.864-14.036-18.363-26.049l-.032-.052q-.42-.672-.837-1.351c-.044-.071-.088-.142-.131-.213-2.162-3.518-4.281-7.152-6.167-10.7a27.427,27.427,0,0,0-24.315-14.621c-.173,0-.347,0-.521,0-4.718.088-13.214,1.647-22.784,4.011,5.717-7.7,14.412-17.075,26.345-23.756a29.131,29.131,0,0,1,15.224-3.71,30.967,30.967,0,0,1-1.659,17.84,6.386,6.386,0,0,0,.624,5.911h0a6.519,6.519,0,0,0,5,2.839,16.354,16.354,0,0,1,9.116,3.309c2.23,1.813,4.378,3.693,6.418,5.57.042.039.083.079.127.116,5.082,4.687,9.463,9.346,12.607,12.879a13.4,13.4,0,0,0,9.386,4.554c.2.008.4.013.6.013A13.2,13.2,0,0,0,333,122.054c-9.658-16.6-23.666-28.087-33.717-34.8a37.213,37.213,0,0,0-32.895-4.311c-2.387-13.043-8.656-23.6-18.33-30.73A46.476,46.476,0,0,0,226.2,43.761c-1.33-.165-2.686-.294-4.025-.382a21,21,0,0,0-15.763,5.528c-.254.239-.5.485-.744.736a4.055,4.055,0,0,0-.428,5.161,4,4,0,0,0,6.152.428c.162-.171.331-.338.5-.5a12.977,12.977,0,0,1,9.753-3.371c1.188.078,2.387.193,3.566.339a38.464,38.464,0,0,1,18.1,6.952c8.616,6.35,13.843,15.707,15.559,27.836-16.122,9.454-26.654,22.957-32.81,33.072-4.715,1.369-9.72,2.74-14.251,4.24a6.952,6.952,0,0,0-4,3.448h0a6.931,6.931,0,0,0-.57,4.761c1.731,7.254,1.717,14.026-.663,20.374l-.006.014a2.758,2.758,0,0,1-2.065,1.747c-7.038,1.306-12.733-1.9-17.345-9.713-12.075-20.47-30.494-23.03-38.035-23.158a7.445,7.445,0,0,1-4.752-1.716,7.014,7.014,0,0,1-2.506-5.178,33.875,33.875,0,0,1,20.7-10.524,57.364,57.364,0,0,1,17.343.755,35.313,35.313,0,0,1,14.064,6,3.954,3.954,0,0,0,4.832-.095l4.14-3.388a4.15,4.15,0,0,0,.868-5.6,4,4,0,0,0-5.761-.732l-1.973,1.615a43.473,43.473,0,0,0-14.7-5.665,70.957,70.957,0,0,0-11.693-1.217c.024-15.988,8.05-25.537,8.126-25.625.03-.034.059-.069.087-.1a49.558,49.558,0,0,1,18.855-14.454c.053-.023.105-.047.158-.073.654-.315,6.381-3.3,7.607-11.576a4.114,4.114,0,0,0-2.671-4.57,4,4,0,0,0-5.222,3.26c-.546,4-2.912,5.512-3.168,5.668a55.932,55.932,0,0,0-15.635,10.222l-.555-3.874v-.01l-1.8-12.551a14.341,14.341,0,0,0-28.249-.819c-1.957,9.787-2.514,14.24-4.169,33.579a3.975,3.975,0,0,0,3.724,4.258c.091.006.182.009.272.009a4,4,0,0,0,3.987-3.732q.579-8.643,1.494-16.269a35.317,35.317,0,0,1,17.2-.676l1.1,7.666c-2.559,3.457-9.254,14.043-9.146,30.048l-.068.007a41.935,41.935,0,0,0-8.087,1.806c-5.308-8.4-17.643-26.442-32.269-38.094a23.608,23.608,0,0,0-33.447,4.24,112.848,112.848,0,0,0-16.9,33.243c-.512.29-1.021.591-1.52.912-6.941,4.466-16.026,12.421-25.7,26.521a3.862,3.862,0,0,0-.268.4,196.5,196.5,0,0,0-17.01,31.2c-1.4,3.163-6.618,12.2-13.868,15.953A13.29,13.29,0,0,0,9.76,194.031a13.145,13.145,0,0,0,8.616,3.227,12.964,12.964,0,0,0,1.83-.129c10.443-1.479,24.5-6.916,32.138-24.423.035-.081.068-.165.1-.248.11-.306,11.155-30.65,26.748-41.586a12.061,12.061,0,0,1,10.612-1.5,58.28,58.28,0,0,1,15.181,7.569,4.147,4.147,0,0,0,5.591-.672,4,4,0,0,0-.828-5.76,66.159,66.159,0,0,0-12.861-7.036,59.734,59.734,0,0,1,2.65-18.4c10.835,5.513,21,13.427,27.335,18.826a44.287,44.287,0,0,0-2.541,12.771c-.022.445-.021.892-.033,1.338a147.769,147.769,0,0,1-29.607,12.4,41.111,41.111,0,0,0-18.6,11.886c-12.333,13.844-36.112,43.584-56.988,87.38a15.032,15.032,0,0,0-.872,11.035A14.373,14.373,0,0,0,28.7,270.407l.368.082a14.183,14.183,0,0,0,3,.322,14.523,14.523,0,0,0,12.889-7.955c2.032-3.982,4.965-9.583,8.522-15.977.007-.013.017-.024.024-.037,5.183-9.311,10.339-17.873,15.323-25.447.018-.027.027-.057.044-.084,6.43-9.765,13.411-19.136,20.242-25.984.572-.574,1.174-1.142,1.793-1.691a4.171,4.171,0,0,0,.708-5.618,4,4,0,0,0-5.8-.558c-.445.391-.882.792-1.312,1.2-6-2.831-8.611-8-9.707-12.525,2.713-3.3,5.166-6.151,7.27-8.514a33.113,33.113,0,0,1,14.987-9.562c1.448-.447,2.836-.9,4.2-1.354a27.53,27.53,0,0,1,6.888,10.877A41.531,41.531,0,0,0,94.62,196.294c-.006.114-.02.228-.025.342-.014.333-.25,3.845-.524,7.886a59.714,59.714,0,0,1-8.207,26.536q-.182.306-.354.585a13.448,13.448,0,0,0-.1,13.9,13.035,13.035,0,0,0,11.363,6.542c.212,0,.425,0,.638-.014s.4-.021.614-.035a13.471,13.471,0,0,0,9.962-5.472c4.57-6.221,12.926-25.094,14.624-47.166,0,0,.434-8.085,5.307-9.946a1.961,1.961,0,0,0,.363-.239,13.818,13.818,0,0,0,8.439,3.872c.426.037.85.055,1.271.059h.118a13.849,13.849,0,0,0,3.7-.508,14.166,14.166,0,0,0,10.865,8.387,92.228,92.228,0,0,0-3.528,13.963c-.021.12-3.226,23.953,1.144,43.741a13.847,13.847,0,0,0,4.62,7.587c.311.263.625.512.938.743a14.415,14.415,0,0,0,8.6,2.874A14.811,14.811,0,0,0,172,267.822a15.128,15.128,0,0,0,7.335-15.06q-.725-5.34-1.058-9.941c0-.013,0-.025,0-.038-.779-10.643-.2-19.463,1.727-26.215.017-.062.024-.124.039-.186a25.1,25.1,0,0,1,4.929-9.687,62.186,62.186,0,0,0,3.915-4.873c.689,7.679,1.136,15.727,1.318,24.1.709,32.564,9.378,61.1,14.482,75.214a14.145,14.145,0,0,0,23.471,5.018,13.909,13.909,0,0,0,3.947-10.21c-.45-13.7-4.348-27.964-4.536-28.643-.453-1.52-.891-3.08-1.319-4.669-.008-.033-.016-.065-.026-.1a263.064,263.064,0,0,1-6.5-33.726,4.941,4.941,0,0,0-4.655-4.139,61.181,61.181,0,0,0-16.834,2.115l-.01-.008c-.155-8.064-.548-15.851-1.164-23.316a39.692,39.692,0,0,1,12.2-1.364c.1,2.471.234,4.824.394,6.938.187,2.469.4,5,.64,7.512a4,4,0,0,0,3.977,3.623c.126,0,.254-.006.382-.018a4,4,0,0,0,3.6-4.359c-.233-2.466-.444-4.942-.627-7.36-.734-9.722-.85-24.523-.541-33.344a4.154,4.154,0,0,0-2.881-4.186,4.015,4.015,0,0,0-5.106,3.7c-.187,5.152-.228,12.371-.087,19.492a48.934,48.934,0,0,0-12.723,1.3q-.569-5.255-1.295-10.256c.026-.253.058-.5.081-.756a33.452,33.452,0,0,0-.434-8.191,37.363,37.363,0,0,0,16.538-14.958A28.374,28.374,0,0,1,225.5,168.38a3.892,3.892,0,0,0,.546.521,35.713,35.713,0,0,1,7.613,11.351,32.748,32.748,0,0,1,2.313,8.44s1.534,9.727,1.543,9.774c2.617,14.143,8.5,36.331,21.264,54.285a14.463,14.463,0,0,0,11.811,6.1,14.93,14.93,0,0,0,9.053-3.1,13.178,13.178,0,0,0,2.852-2.974,14.577,14.577,0,0,0,1.477-14.394c-2.564-5.792-5.559-13.2-8.338-21.631-.015-.054-.02-.109-.04-.162-5.476-14.668-8.184-34.182-9.862-38.9a80.011,80.011,0,0,0-14.184-25.484,72.14,72.14,0,0,0-5.135-5.394c-.028-.025-.052-.053-.08-.077a64.858,64.858,0,0,0-10.138-7.871,4.065,4.065,0,0,0-5.1.529,4.005,4.005,0,0,0,.756,6.191,55.98,55.98,0,0,1,7.153,5.3,22.792,22.792,0,0,1-9.842,10.106,36.727,36.727,0,0,0-14.6-7.213,41.764,41.764,0,0,0,1.07-22.537c16.545-5.683,37.275-10.714,45.15-10.86a19.516,19.516,0,0,1,17.625,10.375c1.477,2.777,3.079,5.587,4.726,8.349a42.277,42.277,0,0,1-11.7,8.768c-.379-.733-.736-1.437-1.06-2.1a16.3,16.3,0,0,0-12.337-8.936,1.08,1.08,0,0,1-.879-1.309,43.845,43.845,0,0,0,.845-5.848,4.089,4.089,0,0,0-2.935-4.283,4,4,0,0,0-5.035,3.581,50.5,50.5,0,0,1-1.648,9.275,5.223,5.223,0,0,0,1.068,4.808ZM153.693,50.34c.014-.086.026-.177.04-.263a55.074,55.074,0,0,1,1-7.539,6.83,6.83,0,0,1,6.545-5,6.37,6.37,0,0,1,6.274,5.44l.984,6.872A43.312,43.312,0,0,0,153.693,50.34ZM37.832,259.219a6.458,6.458,0,0,1-7.074,3.451l-.263-.059a6.349,6.349,0,0,1-4.293-3.454,6.631,6.631,0,0,1-.014-5.754q3.041-6.39,6.15-12.365A24.019,24.019,0,0,0,43.8,247.883C41.39,252.332,39.359,256.227,37.832,259.219ZM47.9,240.484l-.074.128a16.075,16.075,0,0,1-11.388-7.257c4.009-7.326,8.258-14.54,12.679-21.526A55.506,55.506,0,0,0,59.873,220.5C59.811,220.592,48.8,238.88,47.9,240.484Zm30.9-45.808a196.318,196.318,0,0,0-14.522,19.132,43.936,43.936,0,0,1-10.637-8.975c5.426-8.175,10.606-15.291,15.28-21.33A24.758,24.758,0,0,0,78.8,194.676Zm140.628,73.211c.154.535.3,1.088.46,1.615.038.138,3.811,13.969,4.229,26.7a5.973,5.973,0,0,1-1.7,4.383,6.144,6.144,0,0,1-10.2-2.174,244.838,244.838,0,0,1-7.582-25.489A38.17,38.17,0,0,1,219.425,267.887Zm-7.231-35.194a276.984,276.984,0,0,0,5.152,27.413,46.5,46.5,0,0,0-14.535,4.662,226.526,226.526,0,0,1-4.175-29.789A54.151,54.151,0,0,1,212.194,232.693ZM19.085,189.208a5.051,5.051,0,0,1-4.078-1.218,5.316,5.316,0,0,1-1.832-4.015,5.441,5.441,0,0,1,3.046-4.78c6.558-3.4,11.345-9.409,14.241-13.926a33.588,33.588,0,0,0,11.936,9.2C35.983,184.7,26.428,188.168,19.085,189.208Zm26.78-21.954c-4.972-2.11-8.72-6.08-11.3-9.737a197.858,197.858,0,0,1,12.226-23.131,59.525,59.525,0,0,0,10.092,10.52A153.964,153.964,0,0,0,45.865,167.254Zm43.051-46.273a20,20,0,0,0-14.32,3.341c-4.947,3.47-9.41,8.454-13.287,13.858a45.769,45.769,0,0,1-9.716-11.027c8.4-11.813,16.147-18.56,22.124-22.4a22.841,22.841,0,0,1,18.419-2.8A66.683,66.683,0,0,0,88.916,120.981Zm9.715-25.2A31.061,31.061,0,0,0,80.64,93.615,100.723,100.723,0,0,1,94.182,68.7a15.607,15.607,0,0,1,22.09-2.819c.342.272.68.553,1.02.833a44.257,44.257,0,0,1-9.719,16.941A15.161,15.161,0,0,0,99.715,85.7a4,4,0,1,0,4.009,6.922,7.451,7.451,0,0,1,9.89,2.488,54.5,54.5,0,0,1,6.023,12.985A121.282,121.282,0,0,0,98.631,95.78Zm2.909,146.05a5.489,5.489,0,0,1-4.059,2.225l-.442.026a5.123,5.123,0,0,1-4.738-2.6,5.4,5.4,0,0,1,.028-5.651,59.625,59.625,0,0,0,5.371-11.5,32.351,32.351,0,0,0,11.5,3.4A64.58,64.58,0,0,1,101.54,241.83Zm10.281-21.947a24.645,24.645,0,0,1-11.83-3.418c.01-.043.019-.088.028-.132a155.933,155.933,0,0,0,2.569-19.351v-.015c.025-.57.069-1.139.123-1.706a32.022,32.022,0,0,0,11.938,2.988C114.649,206.021,113.92,213.808,111.821,219.883Zm12.011-41.06a14.363,14.363,0,0,0,.442,3.454c-.294.193-.595.383-.882.58a20.24,20.24,0,0,0-6.567,7.474c-6.01-.145-9.906-1.7-12.287-3.212a34.048,34.048,0,0,1,10.41-14.855,3.963,3.963,0,0,0,.526-.407c.3-.238.6-.481.912-.709,1.455-1.061,2.983-2.1,4.544-3.094a4,4,0,1,0-4.289-6.753c-.641.408-1.27.829-1.9,1.25a35.6,35.6,0,0,0-5.332-8.781,149.5,149.5,0,0,0,15.3-6.873,66.186,66.186,0,0,0,2.7,12.286A51.353,51.353,0,0,0,123.832,178.823Zm5.784-63.059A64.493,64.493,0,0,0,120.353,90.8a15.512,15.512,0,0,0-4.491-4.565,52.341,52.341,0,0,0,7.867-13.656c9.891,9.83,18.075,21.67,22.393,28.406a42.586,42.586,0,0,0-15.731,15.427C130.132,116.193,129.885,115.985,129.616,115.764Zm11,68.8a5.912,5.912,0,0,1-2.506.587h-.05q-.332,0-.674-.03a6.26,6.26,0,0,1-5.556-6.308c-.013-6.658,1.164-18.754,9.193-24.959a5.119,5.119,0,0,1,5.089-.7,4.56,4.56,0,0,1,2.873,3.586c.024.161.044.326.059.5a7.379,7.379,0,0,1-.18,2.216C142.469,167.074,140.867,177.46,140.618,184.559Zm14.235,8.631H154.8q-.333,0-.673-.03a6.259,6.259,0,0,1-5.557-6.308c-.013-6.658,1.164-18.754,9.192-24.959a5.108,5.108,0,0,1,3.135-1.08,5.222,5.222,0,0,1,1.955.383,4.56,4.56,0,0,1,2.873,3.584v0c.025.161.044.326.059.495a8.061,8.061,0,0,1-.441,3.168,110.664,110.664,0,0,0-4.409,19.253A6.276,6.276,0,0,1,154.853,193.19Zm.791,44.89,0-.09a104.322,104.322,0,0,1,1.058-19.636,30.6,30.6,0,0,0,14.251,2.223,181.22,181.22,0,0,0-.872,18.987C165.921,239.922,160.481,239.855,155.644,238.08Zm12.284,22.858a6.464,6.464,0,0,1-7.332-.315c-.175-.13-.349-.269-.519-.412a6.537,6.537,0,0,1-2.033-3.44,84.929,84.929,0,0,1-1.736-10.159,42.271,42.271,0,0,0,9.911,1.115c1.583,0,3.081-.076,4.46-.191.206,2.051.438,4.138.732,6.3A7.07,7.07,0,0,1,167.928,260.938Zm20.7-90.843c-.072.029-.146.052-.215.084a49.748,49.748,0,0,1-11.263,2.773,4,4,0,0,0,.523,7.966,4.18,4.18,0,0,0,.532-.035,61.122,61.122,0,0,0,8.761-1.814,22.942,22.942,0,0,1,.142,4.6,34.874,34.874,0,0,1-.78,5.07,55.954,55.954,0,0,0-8.963-2.778,4,4,0,0,0-1.7,7.817,48.008,48.008,0,0,1,7.457,2.294,48.347,48.347,0,0,1-4.165,5.353,31.6,31.6,0,0,0-5.954,10.745,22.714,22.714,0,0,1-14.73-1.861,79.621,79.621,0,0,1,3.581-11.01,14.3,14.3,0,0,0,7.017-10.6,101.959,101.959,0,0,1,4.076-17.769,15.981,15.981,0,0,0,.807-6.327q-.043-.509-.116-1v0a12.5,12.5,0,0,0-7.8-9.83,13.219,13.219,0,0,0-9.408-.161,12.5,12.5,0,0,0-7.334-7.884,13.214,13.214,0,0,0-12.97,1.787A25.622,25.622,0,0,0,133.3,150.1a53.548,53.548,0,0,1-.98-13.037,36.027,36.027,0,0,1,3.956-14.775,14.971,14.971,0,0,0,12.582,6.977c7.553.095,21.676,2.72,31.412,19.226,5.174,8.769,12.127,13.494,20.127,13.9A31.724,31.724,0,0,1,188.632,170.1Zm81.078,54.032c2.374,6.708,4.808,12.652,6.952,17.493a6.581,6.581,0,0,1-11.36,6.5,101.025,101.025,0,0,1-10.224-18.447A44.418,44.418,0,0,0,269.71,224.127Zm-2.613-7.8a36.246,36.246,0,0,1-15,5.744c-5.411-12.406-7.682-30.862-7.7-30.954a75.007,75.007,0,0,0,15.145-6.106C259.57,185.1,263.574,205.587,267.1,216.323ZM244.924,156.79c.185.21.373.412.555.625a66.457,66.457,0,0,1,11.616,19.8,66.843,66.843,0,0,1-14.056,5.961,38.206,38.206,0,0,0-2.05-6.141,45.958,45.958,0,0,0-6.047-10.175A30.528,30.528,0,0,0,244.924,156.79Zm63.69,17a40.222,40.222,0,0,0,12.8,6.137,6.774,6.774,0,0,1-1.949,13.261h-2.3a20.629,20.629,0,0,1-12.774-4.394c-2.776-2.2-5.361-4.5-7.8-6.848A41.315,41.315,0,0,0,308.614,173.792Zm-21.128-27.647c6.807,10.671,13.242,19.323,13.98,20.311.407.592.835,1.154,1.272,1.7.028.035.052.073.081.109a31.1,31.1,0,0,1-12.3,7.389c-.238-.266-10.272-11.237-15.2-20.781A50.953,50.953,0,0,0,287.486,146.145ZM302.3,116.66c-1.535-1.364-3.121-2.721-4.75-4.045a24.4,24.4,0,0,0-11.2-5.1,39.428,39.428,0,0,0,1.438-17.075,29.808,29.808,0,0,1,7.065,3.468,113.978,113.978,0,0,1,15.314,12.246C308.78,109.939,306.4,114.113,302.3,116.66Zm22.93,15.848a5.185,5.185,0,0,1-7.46-.284c-2.48-2.794-5.726-6.288-9.487-9.972a26.969,26.969,0,0,0,7.9-9.83,86.869,86.869,0,0,1,9.911,13.656A5.229,5.229,0,0,1,325.225,132.508Z"/><path d="M201.065,119.275a4,4,0,0,0,5.559,1.051l4.126-2.813a4,4,0,0,0-4.508-6.61l-4.126,2.814A4,4,0,0,0,201.065,119.275Z"/><script>alert(1);</script></svg>